<svg xmlns="http://www.w3.org/2000/svg" viewBox="0 0 145.422 48" width="145.422" height="48"><path data-name="Trazado 4" d="M40.185 47.363 35.33 35.729H12.65L7.668 47.363H0v-1.237a6.253 6.253 0 0 0 5.304-4.084L21.722 3.993a6.544 6.544 0 0 0-3.195-2.105V.64h10.604l17.377 41.338a5.82 5.82 0 0 0 5.177 4.147v1.237Zm-25.94-15.348h19.549L24.213 8.932Z"/><path data-name="Trazado 5" d="M58.611 7.077c0-3.095-1.405-4.332-4.218-5.197V.64h21.722c9.136 0 17.186 4.456 17.186 12.74a11.225 11.225 0 0 1-4.918 9.408 10.729 10.729 0 0 1 7.668 10.521c0 10.829-9.582 14.048-19.741 14.048H54.394V46.12c2.81-.865 4.218-2.105 4.218-5.197Zm14.96-3.591a52.419 52.419 0 0 0-7.282.496v17.266a18.185 18.185 0 0 0 9.263 2.598c4.358 0 9.773-1.361 9.773-9.468-.02-7.302-4.61-10.893-11.754-10.893Zm10.095 21.792a25.279 25.279 0 0 1-8.113 1.425 18.973 18.973 0 0 1-9.263-2.29v19.476a51.199 51.199 0 0 0 8.305.62c6.9 0 13.481-2.042 13.481-10.521a10.125 10.125 0 0 0-4.422-8.72Z"/><path data-name="Trazado 6" d="M139.354 2.974c1.277 0 1.981-1.361 2.555-2.974h1.277l2.236 13.689h-1.277c-4.09-4.694-10.031-10.219-18.463-10.219-9.773 0-17.249 7.061-17.249 18.272 0 12.14 7.986 21.306 20.19 21.306a30.617 30.617 0 0 0 15.908-4.767l.704 1.485a28.655 28.655 0 0 1-21.145 8.238 22.919 22.919 0 0 1-23.831-24.216A24.24 24.24 0 0 1 125.108 0c8.75 0 12.455 2.974 14.245 2.974Z"/></svg>