<svg xmlns="http://www.w3.org/2000/svg" viewBox="0 0 278.384 48" width="278.384" height="48"><defs><clipPath id="a"><path style="fill:none" d="M0 0h278.388v48H0z"/></clipPath><style>.e,.f{fill-rule:evenodd}.e{fill:#211915}.f{fill:#913d45}</style></defs><g style="clip-path:url(#a)"><path d="M165.364 38.215V18.511a21.364 21.364 0 0 1 27.687 19.708h-27.687m6.219-6.461a4.901 4.901 0 1 0-1.435-3.458 4.888 4.888 0 0 0 1.435 3.458Z" style="fill-rule:evenodd;fill:#d68500"/><path d="M165.364 0h27.747v22.574a26.943 26.943 0 0 0-27.747-9.841V0" style="fill:#5da0cc;fill-rule:evenodd"/><path class="e" d="M149.044 10.835c-5.065 0-9.24 1.794-12.007 2.982l-.467.199 1.699 6.167.432-.143c2.654-.83 5.956-1.863 8.717-1.863 2.023 0 2.922.838 2.922 2.723v.71h-3.976c-7.758 0-11.669 3.004-11.669 8.925 0 7.347 6.263 7.914 8.182 7.914 2.995 0 5.39-.934 7.317-2.853l.169-.156v2.572h8.908V20.746c0-6.76-3.25-9.906-10.226-9.906m1.297 19.808-.259.147c-.813.467-2.044 1.167-3.458 1.167-1.768 0-2.701-.921-2.701-2.658 0-1.958 1.297-2.991 3.808-2.991h2.593v4.322Z"/><path class="e" d="M135.222 10.645h-8.419a10.649 10.649 0 0 1-2.52-.143 21.93 21.93 0 0 0-3.086-.246c-7.542 0-11.695 3.276-11.695 9.227 0 4.378 2.563 6.461 3.665 7.153l.134.082-.138.078c-2.057 1.184-3.099 2.865-3.099 4.983a4.542 4.542 0 0 0 2.308 4.162l.143.086-.147.078c-2.36 1.258-3.505 3.025-3.505 5.346 0 4.322 4.261 6.543 12.668 6.543 8.985 0 13.351-2.87 13.351-8.774 0-4.914-2.956-7.455-9.31-8l-5.588-.488c-1.323-.108-2.191-.259-2.191-1.344a2.005 2.005 0 0 1 .35-.921l.039-.061h.069a11.237 11.237 0 0 0 2.939.324c5.424 0 11.894-1.487 11.894-8.579a4.434 4.434 0 0 0-.717-2.667l-.112-.121 2.952-.134v-6.584m-17.05 26.848.03-.048 5.074.497c1.781.147 2.883.566 2.883 2.209s-1.474 2.541-4.374 2.541c-3.025 0-4.478-.899-4.478-2.753a4.504 4.504 0 0 1 .864-2.446Zm3.112-14.016c-2.113 0-3.025-1.193-3.025-3.994 0-2.654 1.016-3.998 3.025-3.998 2.126 0 3.077 1.232 3.077 3.998s-.921 3.994-3.077 3.994ZM96.251 10.835c-5.074 0-9.249 1.798-12.015 2.986l-.458.199 1.694 6.167.432-.138c2.654-.83 5.956-1.863 8.726-1.863 2.018 0 2.917.838 2.917 2.723v.701h-3.972c-7.78 0-11.695 3.004-11.695 8.925 0 7.347 6.263 7.914 8.182 7.914 2.999 0 5.394-.934 7.317-2.853l.164-.164v2.572h8.912V20.746c0-6.76-3.25-9.906-10.226-9.906m1.297 19.808-.246.138c-.817.467-2.049 1.171-3.458 1.171-1.768 0-2.701-.921-2.701-2.658 0-1.958 1.297-2.991 3.812-2.991h2.593v4.322ZM79.131.052v37.947h-8.908V.052h8.908m-15.758 0-3.63 6.915h-8.856L53.852.052h9.508m-6.898 10.783c-5.074 0-9.253 1.798-12.015 2.986l-.458.199 1.694 6.167.432-.138c2.654-.83 5.956-1.863 8.726-1.863 2.018 0 2.917.838 2.917 2.723v.701h-3.976c-7.758 0-11.669 3.004-11.669 8.925 0 7.347 6.263 7.914 8.182 7.914 2.999 0 5.394-.934 7.317-2.853l.164-.164v2.572h8.912V20.746c0-6.76-3.25-9.906-10.226-9.906m1.297 19.808-.255.147c-.813.467-2.044 1.167-3.458 1.167-1.768 0-2.701-.921-2.701-2.658 0-1.958 1.297-2.991 3.808-2.991h2.593v4.322ZM39.806.052v37.947h-9.267V15.888l-.186-.03L23.274 38h-6.738L9.457 15.862l-.186.03v22.107H0V.052h12.499l7.434 21.61L27.367.052h12.439"/><path class="f" d="m278.384 11.868-7.78 21.588c-3.354 9.366-7.408 12.819-16.648 14.155l-1.794-6.159c4.093-1.236 6.483-2.956 7.455-5.398l.536-1.297-8.774-22.885h9.867l3.756 12.417 3.639-12.417h9.755"/><path class="f" d="M238.483 10.775c-8.769 0-13.796 5.035-13.796 13.83s5.031 13.83 13.796 13.83c8.644 0 13.796-5.186 13.796-13.83 0-8.778-5.026-13.83-13.796-13.83m0 20.685c-3.004 0-4.525-2.312-4.525-6.872s1.478-6.868 4.525-6.868 4.525 2.247 4.525 6.868-1.482 6.872-4.525 6.872ZM207.313 0v14.435l.272-.251c1.297-1.193 3.661-3.41 7.68-3.41 4.378 0 6.885 2.961 6.885 8.117V37.96h-8.916V21.861c0-1.69-.778-2.55-2.317-2.55-1.452 0-2.822.826-3.557 1.271l-.048.026v17.353h-8.908V0h8.908"/></g></svg>