<svg version="1.0" xmlns="http://www.w3.org/2000/svg" width="189.867" height="48" viewBox="0 0 142.4 36"><path d="M40.4 6.8c-.88 1.76-1.6 3.28-1.6 3.4s.6.2 1.32.2c1.2 0 1.68-.36 4-3.2 1.48-1.72 2.68-3.28 2.68-3.4s-1.08-.2-2.4-.2H42l-1.6 3.2zm14.32-2.08c-2.68.88-3.12 1.16-3.12 1.96 0 .76.2.92 1.2.92H54v22.8h4.96c7.84 0 11.12-1.4 13.24-5.6.48-.88.72-2.32.72-4 0-6.72-5.28-10.28-10.96-7.4l-1.96.96V3.6l-1.08.04c-.64 0-2.52.52-4.2 1.08zm10.32 12.64c1.28 1.28 1.36 1.52 1.36 4 0 4.48-1.36 6.48-4.8 6.92l-1.6.24V16h1.84c1.56 0 2.04.2 3.2 1.36zM77 4.76c-2.56.88-3.24 1.28-3.32 1.96-.12.76.04.88 1.08.88H76v20.68l-1.2.24c-.84.2-1.2.48-1.2 1.08 0 .76.24.8 5.64.8 5.6 0 5.6 0 5.48-.88-.08-.68-.48-.96-1.32-1.12l-1.2-.2-.12-12.32L82 3.6l-.92.04c-.48 0-2.32.52-4.08 1.12zm11.36 0c-.72.56-.96 1.16-.96 2.44s.24 1.88.96 2.44c2.12 1.72 5.24.28 5.24-2.44s-3.12-4.16-5.24-2.44z"/><path d="M8 7.36c0 .92.16 1.04 1.36 1.04.88 0 1.44.24 1.6.64.12.36.24 4.64.24 9.52 0 9.56-.04 9.84-2.08 9.84-.92 0-1.12.16-1.12 1v1h12.4v-1c0-.84-.2-1-1.12-1-1.72 0-2.08-.68-2.08-3.88V21.6h2.76c4.36 0 7.44-1.48 8.72-4.24.52-1.08.92-1.36 1.8-1.36h1.12v5.2c0 5.72.44 7.48 2.12 8.6 2.04 1.32 4.4 1.12 8.8-.8.52-.2.68-.08.68.56 0 .8.2.84 4.24.84 4.12 0 4.2 0 4.08-.88-.08-.56-.48-.96-1.12-1.12l-1-.24-.12-7.88-.08-7.88h-1.12c-.64 0-2.36.44-3.92.92-2.16.76-2.8 1.12-2.88 1.8-.12.72.08.88.88.88h1.04v5.36c0 5.12-.04 5.4-.84 5.64-1.32.44-3.48-.16-4.16-1.12-.48-.68-.6-2.16-.6-7.16V12.4h-1.24c-.68 0-2.48.44-4 1l-2.76 1v-1.12c0-2-1.64-4.6-3.6-5.68-1.72-.96-2.12-1-9.88-1.12L8 6.32v1.04zM20.84 9.2c2.6 1.4 2.6 8.2 0 9.6-.44.2-1.44.4-2.2.4H17.2V8.8h1.44c.76 0 1.76.2 2.2.4zM90 12.68c-.32.12-1.56.56-2.68 1-1.56.56-2.12 1-2.12 1.56 0 .6.28.76 1.2.76h1.24l-.12 6.08-.12 6.08-1 .24c-.64.16-1.04.56-1.12 1.12-.12.88-.08.88 5.32.88 5.44 0 5.44 0 5.32-.92-.08-.64-.44-.92-1.2-1l-1.12-.12V12.4l-1.48.04c-.84 0-1.8.12-2.12.24zm12.6.36c-.88.32-2.28 1.24-3.08 2.04-2.08 2.04-2.84 4.24-2.64 7.48.2 3.2 1.64 5.52 4.32 7.04 1.52.84 2.32 1 5 .96 2.16 0 3.92-.28 5.4-.8 2.08-.76 2.2-.88 2.32-2.32.16-1.72.32-1.68-3.12-.44-4.28 1.56-7.6-1.2-7.6-6.28.04-2.84 1.12-5.2 2.84-6 .72-.36 1.48-.56 1.64-.48.16.12.32 1.24.32 2.56 0 2.6.2 2.8 2.8 2.8 2.84 0 4.08-3.12 2.12-5.32-1.72-1.84-6.92-2.48-10.32-1.24z"/><path d="M120.12 13.04c-2.44.88-4.72 3.56-5.28 6.12-1.52 7.04 3.44 12.2 11 11.52 6.04-.56 9.04-3.6 9.12-9.12 0-3.6-1.24-6.08-3.96-7.76-1.72-1.08-2.32-1.2-5.56-1.28-2.48-.08-4.2.12-5.32.52zm6.28 1.76c1.4.72 2.12 3.64 1.92 7.6-.2 4.6-.92 5.8-3.52 5.8-2.56 0-3.32-1.2-3.52-5.76-.2-3.88.28-6 1.64-7.24.92-.88 2.32-1.04 3.48-.4z"/></svg>